<?xml version="1.0" standalone="no"?>
<!DOCTYPE svg PUBLIC "-//W3C//DTD SVG 20010904//EN"
 "http://www.w3.org/TR/2001/REC-SVG-20010904/DTD/svg10.dtd">
<svg version="1.0" xmlns="http://www.w3.org/2000/svg"
 width="500.000000pt" height="500.000000pt" viewBox="0 0 500.000000 500.000000"
 preserveAspectRatio="xMidYMid meet">

<g transform="translate(0.000000,500.000000) scale(0.100000,-0.100000)"
fill="#000000" stroke="none">
<path d="M1260 2625 l0 -235 60 0 60 0 0 115 c0 63 3 115 8 115 4 0 31 -41 60
-90 50 -85 55 -90 86 -90 32 0 36 5 87 93 52 89 54 91 60 62 4 -16 7 -69 8
-117 l1 -88 60 0 60 0 0 235 0 235 -57 0 -58 0 -79 -137 -79 -136 -23 39 c-13
22 -50 82 -82 134 l-58 95 -57 3 -57 3 0 -236z"/>
<path d="M1960 2625 l0 -235 190 0 190 0 0 50 0 50 -125 0 -125 0 0 45 0 45
105 0 105 0 0 50 0 50 -105 0 -105 0 0 40 0 40 120 0 120 0 0 50 0 50 -185 0
-185 0 0 -235z"/>
<path d="M2470 2625 l0 -235 65 0 65 0 0 60 0 60 40 0 c37 0 42 -4 80 -60 l41
-60 70 0 c54 0 68 3 62 13 -4 6 -27 40 -50 73 l-43 62 25 16 c41 27 65 75 65
129 0 56 -18 95 -60 130 -44 38 -89 47 -232 47 l-128 0 0 -235z m274 103 c22
-31 20 -64 -4 -88 -16 -16 -33 -20 -80 -20 l-60 0 0 65 0 65 64 0 c56 0 67 -3
80 -22z"/>
<path d="M3020 2625 l0 -235 65 0 65 0 0 121 c0 67 4 119 9 117 5 -1 52 -56
106 -120 l96 -118 55 0 54 0 0 235 0 235 -65 0 -64 0 -3 -121 -3 -122 -100
121 -100 122 -57 0 -58 0 0 -235z"/>
<path d="M1217 2223 c-4 -3 -7 -30 -7 -60 l0 -53 745 0 745 0 0 60 0 60 -738
0 c-406 0 -742 -3 -745 -7z"/>
<path d="M2790 2180 l0 -50 43 2 c36 1 38 2 10 5 -43 6 -47 40 -5 46 l27 4
-27 2 c-40 2 -36 29 5 34 28 3 26 4 -10 5 l-43 2 0 -50z"/>
<path d="M2920 2227 c0 -14 42 -97 49 -97 5 0 18 23 29 50 12 28 17 50 12 50
-5 0 -14 -16 -21 -35 -16 -43 -23 -44 -39 -5 -11 26 -30 50 -30 37z"/>
<path d="M3082 2184 c-24 -48 -24 -66 -2 -39 17 20 56 19 64 -1 4 -9 9 -14 12
-11 8 7 -33 97 -43 97 -5 0 -19 -21 -31 -46z m48 -6 c0 -5 -9 -8 -20 -8 -18 0
-19 3 -9 21 9 17 13 19 20 8 5 -8 9 -17 9 -21z"/>
<path d="M3221 2178 c2 -52 2 -52 8 -13 l6 40 30 -37 c17 -21 33 -38 38 -38 4
0 7 23 7 50 0 28 -4 50 -10 50 -5 0 -10 -15 -10 -32 l-1 -33 -28 33 c-15 17
-31 32 -34 32 -4 0 -6 -24 -6 -52z"/>
<path d="M3473 2223 c27 -4 35 -17 17 -28 -5 -3 -19 -19 -30 -35 l-21 -30 48
2 c36 1 40 2 16 5 -32 4 -42 16 -23 28 5 3 19 19 30 35 l21 30 -43 -1 c-30 -2
-34 -3 -15 -6z"/>
<path d="M3593 2180 c0 -30 2 -43 4 -27 2 15 2 39 0 55 -2 15 -4 2 -4 -28z"/>
<path d="M3668 2205 c-17 -38 13 -77 55 -73 24 2 33 8 35 26 4 27 -14 29 -21
2 -11 -41 -61 -12 -55 32 2 19 9 23 36 23 17 0 32 3 32 7 0 5 -16 8 -35 8 -28
0 -38 -5 -47 -25z"/>
</g>
</svg>
